# xmcd
#
# Track frame offsets:
#	150
#	14018
#	27865
#	44872
#	61944
#
# Disc length: 1112 seconds
#
# Revision: 1
# Processed by: cddbd v1.5.2PL0 Copyright (c) Steve Scherf et al.
# Submitted via: audiograbber 1.83.01
#
DISCID=41045605
DTITLE=Paps 'N' Skar - Vieni con me
DYEAR=2005
DGENRE=Dance
TTITLE0=01 - Paps 'N' Skar - Vieni con me (Italian Spot Version)
TTITLE1=02 - Paps 'N' Skar - Vieni con me (English Spot Version)
TTITLE2=03 - Paps 'N' Skar - Vieni con me (DJ Maxwell Italian Pop Mix)
TTITLE3=04 - Paps 'N' Skar - Vieni con me (DJ Maxwell English Pop Mix)
TTITLE4=05 - Paps 'N' Skar - Vieni con me (DJ Maxwell Rmx)
EXTD=
EXTT0=
EXTT1=
EXTT2=
EXTT3=
EXTT4=
PLAYORDER=
